<?xml version="1.0" standalone="no"?>
<!DOCTYPE svg PUBLIC "-//W3C//DTD SVG 20010904//EN"
 "http://www.w3.org/TR/2001/REC-SVG-20010904/DTD/svg10.dtd">
<svg version="1.0" xmlns="http://www.w3.org/2000/svg"
 width="192.000000pt" height="192.000000pt" viewBox="0 0 192.000000 192.000000"
 preserveAspectRatio="xMidYMid meet">
<metadata>
Created by potrace 1.11, written by Peter Selinger 2001-2013
</metadata>
<g transform="translate(0.000000,192.000000) scale(0.100000,-0.100000)"
fill="#000000" stroke="none">
<path d="M0 960 l0 -960 960 0 960 0 0 960 0 960 -960 0 -960 0 0 -960z m850
600 l0 -90 -90 0 -90 0 0 90 0 90 90 0 90 0 0 -90z m200 0 l0 -90 -90 0 -90 0
0 90 0 90 90 0 90 0 0 -90z m200 0 l0 -90 -90 0 -90 0 0 90 0 90 90 0 90 0 0
-90z m200 0 l0 -90 -90 0 -90 0 0 90 0 90 90 0 90 0 0 -90z m-800 -200 l0 -90
-90 0 -90 0 0 90 0 90 90 0 90 0 0 -90z m200 0 l0 -90 -90 0 -90 0 0 90 0 90
90 0 90 0 0 -90z m400 0 l0 -90 -90 0 -90 0 0 90 0 90 90 0 90 0 0 -90z m200
0 l0 -90 -90 0 -90 0 0 90 0 90 90 0 90 0 0 -90z m-800 -200 l0 -90 -90 0 -90
0 0 90 0 90 90 0 90 0 0 -90z m200 0 l0 -90 -90 0 -90 0 0 90 0 90 90 0 90 0
0 -90z m-200 -200 l0 -90 -90 0 -90 0 0 90 0 90 90 0 90 0 0 -90z m200 0 l0
-90 -90 0 -90 0 0 90 0 90 90 0 90 0 0 -90z m200 0 l0 -90 -90 0 -90 0 0 90 0
90 90 0 90 0 0 -90z m-400 -200 l0 -90 -90 0 -90 0 0 90 0 90 90 0 90 0 0 -90z
m200 0 l0 -90 -90 0 -90 0 0 90 0 90 90 0 90 0 0 -90z m-200 -200 l0 -90 -90
0 -90 0 0 90 0 90 90 0 90 0 0 -90z m200 0 l0 -90 -90 0 -90 0 0 90 0 90 90 0
90 0 0 -90z m-200 -200 l0 -90 -90 0 -90 0 0 90 0 90 90 0 90 0 0 -90z"/>
</g>
</svg>
